<svg width="149" height="56" viewBox="0 0 149 56" fill="none" xmlns="http://www.w3.org/2000/svg">
<g clip-path="url(#clip0_1_689)">
<path fill-rule="evenodd" clip-rule="evenodd" d="M18.1914 18.7296C18.8732 24.3699 24.7535 21.8661 26.9954 24.9044C28.0863 26.3827 28.3973 28.6901 27.3336 30.5392C26.2153 32.4702 25.1353 32.5357 22.4079 32.9939C14.4221 34.3357 19.0096 45.8998 25.5935 42.1688C27.4536 41.116 27.77 39.8123 28.13 37.2868C28.9536 31.4774 34.3211 34.3303 36.934 31.0247C38.1449 29.4919 38.3631 27.2064 37.294 25.4172C36.2085 23.5953 34.9757 23.3226 32.3574 22.9244C26.5808 22.0461 29.4773 16.6187 26.1172 14.0985C22.5988 11.4639 17.6514 14.2949 18.1859 18.7242L18.1914 18.7296Z" fill="white"/>
<path d="M15.0223 32.7048C17.6192 32.7048 19.7243 30.5996 19.7243 28.0028C19.7243 25.4059 17.6192 23.3008 15.0223 23.3008C12.4255 23.3008 10.3203 25.4059 10.3203 28.0028C10.3203 30.5996 12.4255 32.7048 15.0223 32.7048Z" fill="white"/>
<path d="M36.9779 20.3059C39.5747 20.3059 41.6799 18.2007 41.6799 15.6039C41.6799 13.007 39.5747 10.9019 36.9779 10.9019C34.381 10.9019 32.2759 13.007 32.2759 15.6039C32.2759 18.2007 34.381 20.3059 36.9779 20.3059Z" fill="white"/>
<path d="M36.6776 45.1032C39.2744 45.1032 41.3796 42.9981 41.3796 40.4012C41.3796 37.8044 39.2744 35.6992 36.6776 35.6992C34.0807 35.6992 31.9756 37.8044 31.9756 40.4012C31.9756 42.9981 34.0807 45.1032 36.6776 45.1032Z" fill="white"/>
</g>
<path d="M59.5795 37H52.9315V35.512L54.9715 34.912V21.976L52.9315 21.352V19.864H59.5795V21.352L57.5635 21.976V34.912L59.5795 35.512V37ZM76.8479 37H73.7039L65.0399 23.152H64.9439C64.9759 23.568 64.9999 24.032 65.0159 24.544C65.0479 25.056 65.0719 25.592 65.0879 26.152C65.1199 26.712 65.1359 27.288 65.1359 27.88V37H62.7839V19.864H65.9039L74.5439 33.64H74.6159C74.5999 33.304 74.5839 32.88 74.5679 32.368C74.5519 31.856 74.5279 31.312 74.4959 30.736C74.4799 30.144 74.4639 29.592 74.4479 29.08V19.864H76.8479V37ZM95.2887 28.264C95.2887 30.184 94.9287 31.792 94.2087 33.088C93.4887 34.384 92.4487 35.36 91.0887 36.016C89.7447 36.672 88.1207 37 86.2167 37H81.4167V19.864H86.7207C88.4647 19.864 89.9767 20.184 91.2567 20.824C92.5367 21.464 93.5287 22.408 94.2327 23.656C94.9367 24.888 95.2887 26.424 95.2887 28.264ZM92.5767 28.336C92.5767 26.896 92.3447 25.712 91.8807 24.784C91.4167 23.856 90.7287 23.168 89.8167 22.72C88.9207 22.272 87.8327 22.048 86.5527 22.048H84.0087V34.816H86.0967C88.2567 34.816 89.8727 34.272 90.9447 33.184C92.0327 32.096 92.5767 30.48 92.5767 28.336ZM105.306 37H97.5063V34.936L99.5943 33.976V22.888L97.5063 21.928V19.864H105.306V21.928L103.218 22.888V33.976L105.306 34.936V37ZM123.778 28.408C123.778 29.736 123.61 30.944 123.274 32.032C122.954 33.104 122.458 34.032 121.786 34.816C121.13 35.6 120.282 36.2 119.242 36.616C118.218 37.032 117.01 37.24 115.618 37.24C114.226 37.24 113.01 37.032 111.97 36.616C110.946 36.184 110.098 35.584 109.426 34.816C108.77 34.032 108.274 33.096 107.938 32.008C107.618 30.92 107.458 29.712 107.458 28.384C107.458 26.608 107.746 25.064 108.322 23.752C108.914 22.44 109.81 21.424 111.01 20.704C112.226 19.968 113.77 19.6 115.642 19.6C117.498 19.6 119.026 19.968 120.226 20.704C121.426 21.424 122.314 22.448 122.89 23.776C123.482 25.088 123.778 26.632 123.778 28.408ZM111.274 28.408C111.274 29.608 111.426 30.64 111.73 31.504C112.034 32.368 112.506 33.032 113.146 33.496C113.786 33.96 114.61 34.192 115.618 34.192C116.658 34.192 117.49 33.96 118.114 33.496C118.754 33.032 119.218 32.368 119.506 31.504C119.81 30.64 119.962 29.608 119.962 28.408C119.962 26.6 119.626 25.184 118.954 24.16C118.282 23.136 117.178 22.624 115.642 22.624C114.618 22.624 113.786 22.856 113.146 23.32C112.506 23.784 112.034 24.448 111.73 25.312C111.426 26.176 111.274 27.208 111.274 28.408ZM133.201 37H129.577V22.888H124.921V19.864H137.857V22.888H133.201V37Z" fill="white"/>
<defs>
<clipPath id="clip0_1_689">
<rect width="31.3595" height="34.1998" fill="white" transform="translate(10.3203 10.8999)"/>
</clipPath>
</defs>
</svg>
