<svg width="200" height="30" viewBox="0 0 200 30" fill="none" xmlns="http://www.w3.org/2000/svg">
<path fill-rule="evenodd" clip-rule="evenodd" d="M20.8495 6.86726C20.2512 11.8158 15.0921 9.61766 13.1268 12.2866C12.1703 13.5854 11.8952 15.6078 12.8316 17.2293C13.8103 18.9238 14.7578 18.9814 17.1506 19.384C24.1559 20.5621 20.13 30.7067 14.3541 27.4352C12.721 26.51 12.4454 25.3683 12.1306 23.1523C11.4069 18.0546 6.69913 20.5595 4.40686 17.6573C3.34405 16.3114 3.15465 14.308 4.08944 12.74C5.04169 11.1423 6.12249 10.9011 8.41899 10.553C13.4865 9.78483 10.9462 5.0199 13.8928 2.81069C16.9776 0.497256 21.3188 2.98474 20.849 6.86778L20.8495 6.86726Z" fill="#0A66C2"/>
<path d="M23.6315 19.1227C25.9084 19.1227 27.7542 17.2769 27.7542 15C27.7542 12.7231 25.9084 10.8773 23.6315 10.8773C21.3546 10.8773 19.5088 12.7231 19.5088 15C19.5088 17.2769 21.3546 19.1227 23.6315 19.1227Z" fill="#0A66C2"/>
<path d="M4.3683 8.2454C6.64521 8.2454 8.491 6.3996 8.491 4.1227C8.491 1.84579 6.64521 0 4.3683 0C2.0914 0 0.245605 1.84579 0.245605 4.1227C0.245605 6.3996 2.0914 8.2454 4.3683 8.2454Z" fill="#0A66C2"/>
<path d="M4.63149 30C6.90839 30 8.75419 28.1542 8.75419 25.8773C8.75419 23.6004 6.90839 21.7546 4.63149 21.7546C2.35458 21.7546 0.508789 23.6004 0.508789 25.8773C0.508789 28.1542 2.35458 30 4.63149 30Z" fill="#0A66C2"/>
<path d="M47.8203 25.796H35.7542V4.2041H47.8203V6.59313H38.4758V13.3364H47.2761V15.6957H38.4758V23.407H47.8203V25.796Z" fill="#4B4B4D"/>
<path d="M69.8658 14.7878C69.8658 17.2073 69.4173 19.2333 68.5202 20.8659C67.6231 22.4991 66.3377 23.7288 64.6645 24.5556C62.9914 25.3823 60.9654 25.7954 58.5865 25.7954H52.5686V4.20349H59.2213C61.3987 4.20349 63.2835 4.60641 64.8761 5.41289C66.4688 6.21937 67.6985 7.40344 68.5658 8.96635C69.4325 10.5286 69.8658 12.4691 69.8658 14.7878ZM66.9928 14.8784C66.9928 12.9633 66.6754 11.3909 66.0399 10.1612C65.4051 8.93151 64.4777 8.01923 63.2575 7.42434C62.0379 6.82946 60.5612 6.53234 58.8272 6.53234H55.289V23.4672H58.2222C61.1453 23.4672 63.3379 22.7462 64.7995 21.3049C66.261 19.8637 66.9921 17.7217 66.9921 14.8791L66.9928 14.8784Z" fill="#4B4B4D"/>
<path d="M84.0181 14.3949H91.4874V24.9793C90.3179 25.3626 89.1389 25.6445 87.9492 25.8263C86.7594 26.0075 85.4087 26.0987 83.8971 26.0987C81.6595 26.0987 79.7741 25.6502 78.2423 24.7531C76.7098 23.856 75.546 22.5757 74.7496 20.9127C73.9533 19.2497 73.5554 17.2788 73.5554 15.0006C73.5554 12.7427 73.9989 10.787 74.8858 9.13413C75.7728 7.48063 77.0481 6.19583 78.7111 5.27849C80.3741 4.36114 82.3855 3.90247 84.7442 3.90247C85.9536 3.90247 87.0977 4.01333 88.1766 4.23506C89.2549 4.4568 90.2584 4.76913 91.1852 5.17269L90.157 7.53131C89.3911 7.18857 88.5288 6.89651 87.5716 6.65451C86.6137 6.4125 85.6209 6.2915 84.5927 6.2915C82.879 6.2915 81.4074 6.64437 80.1777 7.35012C78.948 8.05587 78.0104 9.05874 77.3655 10.3587C76.7205 11.6594 76.3981 13.2064 76.3981 15.0006C76.3981 16.7143 76.6755 18.2316 77.2299 19.5519C77.7842 20.8721 78.656 21.9003 79.8457 22.6365C81.0355 23.3727 82.5978 23.7401 84.5332 23.7401C85.4809 23.7401 86.2874 23.6894 86.9526 23.5887C87.6178 23.488 88.2228 23.367 88.7671 23.2257V16.8144H84.0194V14.3949H84.0181Z" fill="#4B4B4D"/>
<path d="M108.725 25.796H96.6587V4.2041H108.725V6.59313H99.3803V13.3364H108.181V15.6957H99.3803V23.407H108.725V25.796Z" fill="#4B4B4D"/>
<path d="M125.906 19.8984C125.906 21.1687 125.593 22.2672 124.968 23.1947C124.343 24.1222 123.441 24.8381 122.262 25.3417C121.082 25.846 119.676 26.0975 118.043 26.0975C117.257 26.0975 116.506 26.0519 115.79 25.9613C115.074 25.8707 114.399 25.7345 113.764 25.5533C113.129 25.3721 112.54 25.1504 111.995 24.8881V21.2593C112.903 21.6622 113.9 22.0303 114.989 22.3629C116.078 22.6955 117.187 22.8621 118.316 22.8621C119.183 22.8621 119.894 22.7462 120.448 22.5143C121.002 22.2824 121.411 21.9599 121.672 21.5469C121.935 21.1338 122.066 20.6549 122.066 20.1107C122.066 19.5057 121.894 18.9919 121.551 18.5687C121.209 18.1455 120.704 17.7521 120.039 17.389C119.374 17.026 118.547 16.6434 117.56 16.2398C116.894 15.9573 116.244 15.6399 115.609 15.287C114.974 14.9341 114.405 14.5059 113.9 14.0016C113.396 13.4973 112.993 12.903 112.691 12.2176C112.389 11.5321 112.237 10.7256 112.237 9.79812C112.237 8.56844 112.534 7.50982 113.129 6.62288C113.724 5.73594 114.561 5.0606 115.639 4.59686C116.718 4.13312 117.973 3.90125 119.404 3.90125C120.554 3.90125 121.632 4.02225 122.641 4.26426C123.648 4.50626 124.646 4.849 125.635 5.29247L124.395 8.40753C123.508 8.02424 122.651 7.72205 121.825 7.50031C120.998 7.27858 120.151 7.16771 119.284 7.16771C118.599 7.16771 118.014 7.27351 117.53 7.48511C117.046 7.69671 116.683 7.99446 116.441 8.37711C116.199 8.7604 116.078 9.20387 116.078 9.70752C116.078 10.2923 116.23 10.7864 116.532 11.1893C116.834 11.5923 117.303 11.9705 117.938 12.3234C118.573 12.6762 119.395 13.0741 120.403 13.5176C121.572 14.0218 122.56 14.5458 123.367 15.09C124.173 15.6342 124.798 16.2892 125.241 17.0558C125.685 17.8217 125.906 18.7695 125.906 19.8984H125.906Z" fill="#0A66C2"/>
<path d="M142.267 25.796H129.989V4.2041H142.267V7.43953H133.86L133.829 12.9436H141.722V16.1486L133.86 16.179L133.829 22.5599L142.267 22.5295V25.796Z" fill="#0A66C2"/>
<path d="M165.22 25.796H160.411L150.19 8.86116H150.069C150.109 9.46618 150.144 10.101 150.174 10.7662C150.205 11.4314 150.235 12.1118 150.265 12.8074C150.295 13.503 150.32 14.2037 150.34 14.9095V25.796H146.863V4.2041H151.641L161.832 21.0179H161.923C161.902 20.494 161.882 19.8991 161.862 19.2339C161.842 18.5687 161.817 17.8883 161.787 17.1927C161.757 16.4971 161.732 15.8268 161.712 15.1819V4.20473H165.22V25.796Z" fill="#0A66C2"/>
<path d="M183.394 19.8984C183.394 21.1687 183.081 22.2672 182.456 23.1947C181.831 24.1222 180.929 24.8381 179.75 25.3417C178.57 25.846 177.164 26.0975 175.531 26.0975C174.745 26.0975 173.994 26.0519 173.278 25.9613C172.562 25.8707 171.887 25.7345 171.252 25.5533C170.617 25.3721 170.028 25.1504 169.483 24.8881V21.2593C170.391 21.6622 171.388 22.0303 172.477 22.3629C173.566 22.6955 174.675 22.8621 175.804 22.8621C176.671 22.8621 177.382 22.7462 177.936 22.5143C178.49 22.2824 178.899 21.9599 179.161 21.5469C179.423 21.1338 179.554 20.6549 179.554 20.1107C179.554 19.5057 179.382 18.9919 179.04 18.5687C178.697 18.1455 178.192 17.7521 177.527 17.389C176.862 17.026 176.035 16.6434 175.048 16.2398C174.382 15.9573 173.732 15.6399 173.097 15.287C172.462 14.9341 171.893 14.5059 171.388 14.0016C170.884 13.4973 170.481 12.903 170.179 12.2176C169.877 11.5321 169.725 10.7256 169.725 9.79812C169.725 8.56844 170.023 7.50982 170.617 6.62288C171.212 5.73594 172.049 5.0606 173.127 4.59686C174.206 4.13312 175.461 3.90125 176.892 3.90125C178.042 3.90125 179.12 4.02225 180.129 4.26426C181.136 4.50626 182.134 4.849 183.123 5.29247L181.883 8.40753C180.996 8.02424 180.139 7.72205 179.313 7.50031C178.486 7.27858 177.639 7.16771 176.772 7.16771C176.087 7.16771 175.502 7.27351 175.018 7.48511C174.534 7.69671 174.171 7.99446 173.929 8.37711C173.687 8.7604 173.566 9.20387 173.566 9.70752C173.566 10.2923 173.718 10.7864 174.02 11.1893C174.322 11.5923 174.791 11.9705 175.427 12.3234C176.061 12.6762 176.883 13.0741 177.891 13.5176C179.06 14.0218 180.048 14.5458 180.855 15.09C181.661 15.6342 182.286 16.2892 182.729 17.0558C183.173 17.8217 183.394 18.7695 183.394 19.8984Z" fill="#0A66C2"/>
<path d="M199.754 25.796H187.476V4.2041H199.754V7.43953H191.347L191.317 12.9436H199.209V16.1486L191.347 16.179L191.317 22.5599L199.754 22.5295V25.796Z" fill="#0A66C2"/>
</svg>
