<svg width="32" height="35" viewBox="0 0 32 35" fill="none" xmlns="http://www.w3.org/2000/svg">
<g clip-path="url(#clip0_29_4675)">
<path fill-rule="evenodd" clip-rule="evenodd" d="M8.19139 8.22965C8.87323 13.8699 14.7535 11.3661 16.9954 14.4044C18.0863 15.8827 18.3973 18.1901 17.3336 20.0392C16.2153 21.9702 15.1353 22.0357 12.4079 22.4939C4.42214 23.8357 9.0096 35.3998 15.5935 31.6688C17.4536 30.616 17.77 29.3123 18.13 26.7868C18.9536 20.9774 24.3211 23.8303 26.934 20.5247C28.1449 18.9919 28.3631 16.7064 27.294 14.9172C26.2085 13.0953 24.9757 12.8226 22.3574 12.4244C16.5808 11.5461 19.4773 6.11865 16.1172 3.59855C12.5988 0.963897 7.65136 3.79492 8.18593 8.22419L8.19139 8.22965Z" fill="white"/>
<path d="M5.02232 22.2048C7.61917 22.2048 9.72433 20.0996 9.72433 17.5028C9.72433 14.9059 7.61917 12.8008 5.02232 12.8008C2.42547 12.8008 0.320312 14.9059 0.320312 17.5028C0.320312 20.0996 2.42547 22.2048 5.02232 22.2048Z" fill="white"/>
<path d="M26.9779 9.80612C29.5747 9.80612 31.6799 7.70096 31.6799 5.10411C31.6799 2.50726 29.5747 0.4021 26.9779 0.4021C24.381 0.4021 22.2759 2.50726 22.2759 5.10411C22.2759 7.70096 24.381 9.80612 26.9779 9.80612Z" fill="white"/>
<path d="M26.6776 34.6035C29.2744 34.6035 31.3796 32.4983 31.3796 29.9015C31.3796 27.3046 29.2744 25.1995 26.6776 25.1995C24.0807 25.1995 21.9756 27.3046 21.9756 29.9015C21.9756 32.4983 24.0807 34.6035 26.6776 34.6035Z" fill="white"/>
</g>
<defs>
<clipPath id="clip0_29_4675">
<rect width="31.3595" height="34.1998" fill="white" transform="translate(0.320312 0.400146)"/>
</clipPath>
</defs>
</svg>
